<?xml version="1.0" standalone="no"?>
<!DOCTYPE svg PUBLIC "-//W3C//DTD SVG 20010904//EN"
 "http://www.w3.org/TR/2001/REC-SVG-20010904/DTD/svg10.dtd">
<svg version="1.0" xmlns="http://www.w3.org/2000/svg"
 width="878.000000pt" height="878.000000pt" viewBox="0 0 878.000000 878.000000"
 preserveAspectRatio="xMidYMid meet">
<metadata>
Created by potrace 1.14, written by Peter Selinger 2001-2017
</metadata>
<g transform="translate(0.000000,878.000000) scale(0.100000,-0.100000)"
fill="#000000" stroke="none">
<path d="M3777 4950 c-434 -578 -791 -1050 -794 -1050 -4 0 -89 64 -148 112
-11 9 -74 58 -140 110 -66 52 -234 184 -374 294 -139 109 -274 215 -300 235
-25 19 -90 70 -144 112 -54 42 -104 77 -110 76 -7 0 -109 -115 -227 -256 -118
-140 -219 -261 -225 -267 -5 -6 -35 -40 -65 -76 -30 -35 -65 -76 -77 -90 -12
-14 -90 -106 -173 -205 -84 -99 -166 -196 -184 -215 -17 -20 -49 -58 -71 -85
-22 -28 -47 -57 -55 -66 -17 -17 -41 -46 -115 -134 -27 -33 -52 -62 -55 -65
-3 -3 -55 -63 -114 -134 -220 -261 -335 -396 -367 -431 l-29 -30 2190 -3
c1205 -1 3176 -1 4380 0 l2190 3 -47 51 c-27 28 -100 106 -163 174 -63 68
-126 136 -140 150 -14 15 -72 77 -130 139 -58 63 -125 134 -148 160 -24 25
-69 73 -99 106 -31 33 -111 119 -178 190 -67 72 -150 161 -186 199 -35 38 -77
84 -94 101 -16 18 -57 61 -89 96 -33 35 -92 98 -130 139 -39 42 -125 134 -191
205 -66 71 -154 165 -196 210 -41 44 -94 100 -117 125 l-42 45 -67 -71 c-90
-94 -294 -312 -313 -334 -21 -24 -239 -258 -324 -347 -39 -41 -73 -72 -77 -71
-4 2 -72 89 -151 195 -79 105 -153 204 -165 220 -12 15 -268 357 -569 758
-300 402 -556 740 -568 752 l-21 23 -788 -1050z"/>
</g>
</svg>
