<?xml version="1.0" standalone="no"?>
<!DOCTYPE svg PUBLIC "-//W3C//DTD SVG 20010904//EN"
 "http://www.w3.org/TR/2001/REC-SVG-20010904/DTD/svg10.dtd">
<svg version="1.0" xmlns="http://www.w3.org/2000/svg"
 width="512.000000pt" height="512.000000pt" viewBox="0 0 512.000000 512.000000"
 preserveAspectRatio="xMidYMid meet">
<metadata>
Created by potrace 1.14, written by Peter Selinger 2001-2017
</metadata>
<g transform="translate(0.000000,512.000000) scale(0.100000,-0.100000)"
fill="#000000" stroke="none">
<path d="M831 3872 c-5 -2 90 -126 211 -277 l220 -275 332 0 331 0 -1 -222
c-1 -123 -3 -225 -3 -228 -1 -3 -376 -5 -834 -5 l-832 0 -45 -23 c-62 -30
-117 -84 -142 -140 -21 -46 -21 -59 -22 -740 l-1 -692 275 2 275 3 0 520 0
519 835 1 c820 1 836 1 880 21 58 27 114 83 142 142 21 47 21 53 22 715 1 367
-1 671 -4 675 -5 7 -1619 11 -1639 4z m1595 -682 c0 -575 -1 -629 -18 -674
-22 -61 -60 -103 -118 -129 -44 -20 -61 -21 -895 -21 l-850 -1 0 -520 0 -520
-225 0 -225 0 -1 645 c0 594 1 649 18 694 20 58 57 100 113 129 40 20 48 21
895 21 l855 1 0 278 c0 241 -2 277 -15 278 -8 0 -163 1 -344 1 l-330 1 -177
221 -176 221 181 5 c99 3 435 3 746 0 l565 -5 1 -625z"/>
<path d="M2663 3870 c-18 -5 -19 -31 -18 -675 1 -653 1 -671 21 -715 26 -57
80 -111 141 -141 l48 -23 825 -1 c454 0 830 -4 835 -7 7 -4 10 -117 10 -313
l0 -307 35 -31 c46 -41 499 -401 508 -405 5 -1 7 314 7 700 -2 689 -2 704 -22
749 -26 57 -80 111 -142 141 l-46 23 -833 0 c-547 0 -832 3 -833 10 -1 6 -2
108 -3 227 l-1 218 338 0 c314 0 337 1 338 18 1 23 1 481 0 512 l-1 25 -594 0
c-327 0 -603 -2 -613 -5z m1157 -274 l0 -224 -287 0 c-159 0 -311 -1 -338 -1
l-51 -1 2 -272 c1 -150 2 -275 3 -278 0 -3 378 -5 839 -5 745 0 842 -2 885
-16 59 -20 103 -60 130 -119 20 -44 21 -60 22 -683 0 -506 -2 -636 -12 -633
-10 4 -392 305 -428 338 -6 5 -10 133 -10 336 l0 327 -850 1 c-782 0 -853 2
-890 18 -54 23 -93 62 -118 116 -20 44 -21 61 -22 675 -1 347 0 633 2 638 3 4
256 7 564 7 l559 0 0 -224z"/>
<path d="M770 1670 l0 -380 379 0 378 0 -1 90 c-1 56 -6 94 -13 98 -6 4 -133
7 -282 6 l-271 -1 2 186 3 185 275 2 c151 1 278 2 281 3 3 0 5 43 5 94 l-1 92
-377 3 -378 2 0 -380z"/>
<path d="M1710 1669 l0 -379 378 0 377 0 1 380 0 379 -378 0 -378 -1 0 -379z
m556 178 c4 -4 8 -86 8 -182 1 -169 0 -176 -19 -180 -11 -2 -95 -3 -187 -3
l-168 1 0 182 c0 100 2 184 4 186 8 7 354 4 362 -4z"/>
<path d="M2650 1670 l0 -380 95 0 95 0 2 217 3 216 180 -216 180 -217 100 0
101 0 -2 373 c-1 204 -2 376 -3 380 0 4 -43 6 -93 5 l-93 -3 0 -207 c0 -113
-2 -209 -6 -212 -3 -3 -85 91 -183 209 l-179 215 -98 0 -99 0 0 -380z"/>
<path d="M3600 2042 c-6 -2 -10 -91 -10 -238 l0 -234 283 0 283 0 -2 -37 c-1
-21 -2 -41 -3 -44 -1 -4 -119 -7 -263 -7 -145 0 -271 0 -280 -1 -16 -1 -18
-13 -18 -96 l0 -95 378 0 378 0 0 233 c-1 173 -4 233 -13 237 -7 3 -134 5
-283 4 l-270 0 0 43 0 43 283 0 283 0 0 95 c0 58 -4 95 -11 96 -32 3 -727 3
-735 1z"/>
</g>
</svg>
